<svg version="1.1" id="Layer_1" xmlns="http://www.w3.org/2000/svg" xmlns:xlink="http://www.w3.org/1999/xlink" x="0px" y="0px"
	 width="100%" viewBox="0 0 114 116" enable-background="new 0 0 114 116" xml:space="preserve">
<path fill="#FEFEFF" opacity="1.000000" stroke="none" 
	d="
M64.000000,117.000000 
	C42.666668,117.000000 21.833334,117.000000 1.000000,117.000000 
	C1.000000,78.333336 1.000000,39.666668 1.000000,1.000000 
	C39.000000,1.000000 77.000000,1.000000 115.000000,1.000000 
	C115.000000,39.666668 115.000000,78.333336 115.000000,117.000000 
	C98.166664,117.000000 81.333336,117.000000 64.000000,117.000000 
M48.322552,21.081551 
	C47.547497,22.053482 46.772442,23.025414 45.304363,24.088417 
	C43.645069,26.520767 41.758617,28.852057 40.581127,31.498758 
	C40.412228,31.878393 43.568718,34.547840 45.360420,34.773273 
	C47.359669,35.024826 49.557732,33.696255 52.041996,32.942303 
	C52.041996,36.658932 51.928528,40.434807 52.067062,44.201412 
	C52.309792,50.800747 52.359535,57.438496 53.188484,63.971542 
	C53.593842,67.166199 55.782570,69.348862 59.944138,68.261108 
	C63.529251,67.324043 63.744385,65.718407 62.031410,62.060627 
	C62.025887,52.302208 61.968006,42.543190 62.079342,32.786106 
	C62.093685,31.528955 60.710999,28.599112 64.195457,30.403715 
	C64.912727,30.822075 65.630005,31.240435 66.735031,31.717916 
	C66.735031,31.717916 67.096214,31.870901 67.115685,32.654964 
	C68.994606,33.382839 70.835777,34.415928 72.775055,34.655807 
	C73.370216,34.729424 74.899895,32.577351 74.816025,31.540367 
	C74.695473,30.049885 73.489594,28.647186 72.371513,27.125223 
	C72.371513,27.125223 72.019653,26.970747 72.013054,26.241562 
	C68.916435,22.732468 65.947212,19.099682 62.690830,15.745700 
	C58.653831,11.587708 54.944115,12.455230 51.322910,18.081976 
	C50.547657,19.053686 49.772404,20.025398 48.322552,21.081551 
M93.362335,82.422073 
	C93.848618,81.250740 94.334900,80.079407 94.966095,78.286469 
	C95.010544,77.863678 95.055000,77.440887 95.529266,76.819855 
	C95.761154,76.593857 95.924721,76.326111 96.797974,75.894295 
	C97.496109,75.076347 98.768570,74.278923 98.798660,73.437088 
	C98.986221,68.189705 99.037140,62.924984 98.762833,57.685406 
	C98.715332,56.778130 96.900597,55.963375 95.454620,55.023312 
	C95.454620,55.023312 95.000130,54.999989 94.926483,54.231621 
	C94.815300,53.210743 94.704117,52.189869 94.808365,50.469486 
	C92.270592,44.817841 88.105919,41.239029 81.153229,40.187130 
	C80.436455,40.121109 79.719673,40.055092 78.980797,39.538811 
	C78.980797,39.538811 78.917160,39.092522 78.852592,38.351601 
	C76.956856,36.511093 75.228401,35.895191 73.349174,39.164246 
	C72.765045,40.059906 72.180916,40.955563 71.056061,42.058407 
	C70.163589,45.684406 72.510651,46.356182 76.088203,46.735012 
	C77.160645,46.504475 78.233078,46.273933 79.777229,46.300274 
	C80.125443,46.292221 80.473663,46.284168 81.331154,46.839531 
	C83.586861,49.378296 87.027435,51.593002 87.830460,54.529079 
	C89.152626,59.363285 89.108925,64.669556 89.031487,69.767578 
	C88.869675,80.419319 82.120476,85.037079 73.319733,84.252197 
	C58.867893,82.963356 44.048767,87.041550 29.852057,81.169250 
	C29.852057,81.169250 29.734888,81.131134 29.840849,80.341049 
	C28.836134,75.083504 27.101809,69.834541 27.039806,64.565903 
	C26.982241,59.674057 28.709394,54.761208 30.288559,49.711281 
	C30.714739,49.618267 31.140921,49.525257 32.282513,49.720985 
	C33.138924,48.757290 33.995335,47.793591 35.516888,46.579273 
	C36.673367,46.355389 37.829849,46.131508 39.434921,46.494514 
	C44.585049,47.100658 44.921776,46.834373 43.972973,42.320408 
	C44.011013,41.876083 44.049053,41.431755 44.557037,40.563885 
	C42.431553,36.210720 40.655399,35.847034 37.302525,39.283314 
	C35.875473,39.577923 34.448421,39.872532 32.649670,39.580204 
	C28.902174,39.757381 26.025373,41.082520 25.202044,45.198570 
	C25.202044,45.198570 25.189829,45.253216 24.450176,45.164589 
	C21.530645,48.566612 17.196270,51.427067 19.871452,57.817448 
	C19.742861,63.092209 19.614269,68.366974 19.192673,74.492638 
	C19.004698,79.779701 21.470604,84.362053 25.256609,85.744576 
	C25.256609,85.744576 25.312540,85.785263 25.182571,86.513367 
	C27.793362,89.481636 29.856647,93.672394 35.800598,90.932854 
	C36.815594,91.078903 37.830589,91.224960 38.947762,92.092194 
	C39.767483,92.733681 40.571091,93.910263 41.409370,93.935509 
	C52.092968,94.257217 62.782078,94.520912 73.468109,94.466873 
	C74.702438,94.460632 75.926651,92.454163 77.708191,91.187439 
	C78.221855,90.932106 78.735527,90.676765 79.978111,90.491425 
	C80.948128,90.402809 81.918152,90.314201 82.774231,90.330643 
	C82.774231,90.330643 82.865623,90.455818 83.073402,91.033150 
	C85.723824,92.924446 86.505203,91.244705 87.610985,88.717384 
	C88.991905,87.100006 90.372833,85.482620 91.850555,83.887497 
	C91.850555,83.887497 91.923897,83.954483 92.393494,83.768822 
	C92.587814,83.501373 92.782127,83.233925 93.362335,82.422073 
z"/>
<path fill="#9FB4FA" opacity="1.000000" stroke="none" 
	d="
M29.896069,81.284325 
	C44.048767,87.041550 58.867893,82.963356 73.319733,84.252197 
	C82.120476,85.037079 88.869675,80.419319 89.031487,69.767578 
	C89.108925,64.669556 89.152626,59.363285 87.830460,54.529079 
	C87.027435,51.593002 83.586861,49.378296 81.215500,46.320213 
	C83.913857,47.621178 87.960434,48.803749 89.297569,51.388149 
	C92.562958,57.699463 94.081848,64.917145 91.847183,71.917908 
	C89.758560,78.461159 88.702095,86.616753 78.706154,86.280167 
	C78.137016,86.261009 77.531677,87.317017 76.515610,87.905457 
	C72.793221,88.247917 69.504524,88.697830 66.202492,88.841805 
	C54.613808,89.347115 43.117455,88.896393 31.892086,84.687332 
	C31.139467,83.362473 30.517767,82.323402 29.896069,81.284325 
z"/>
<path fill="#7794F8" opacity="1.000000" stroke="none" 
	d="
M29.874062,81.226791 
	C30.517767,82.323402 31.139467,83.362473 31.604742,84.828201 
	C30.926188,85.903496 30.404057,86.552147 29.535076,87.173943 
	C27.896334,86.693146 26.604439,86.239197 25.312542,85.785263 
	C25.312540,85.785263 25.256609,85.744576 25.167019,85.377380 
	C23.213511,81.220703 21.349594,77.431221 19.485680,73.641731 
	C19.614269,68.366974 19.742861,63.092209 20.185989,57.196754 
	C22.063627,52.801785 23.626730,49.027500 25.189831,45.253216 
	C25.189829,45.253216 25.202044,45.198570 25.565659,45.116367 
	C28.293306,43.411827 30.657339,41.789486 33.021370,40.167145 
	C34.448421,39.872532 35.875473,39.577923 37.923355,39.484859 
	C40.391823,40.120079 42.239456,40.553757 44.087093,40.987431 
	C44.049053,41.431755 44.011013,41.876083 43.620483,42.771484 
	C41.840771,44.117577 40.413548,45.012600 38.986328,45.907623 
	C37.829849,46.131508 36.673367,46.355389 34.839424,46.704094 
	C33.297005,47.696690 32.432053,48.564468 31.567101,49.432243 
	C31.140921,49.525257 30.714739,49.618267 29.654079,49.892570 
	C24.307014,55.819744 23.259653,72.789474 27.316702,78.819229 
	C27.924824,79.723045 28.919195,80.366982 29.734888,81.131134 
	C29.734888,81.131134 29.852057,81.169250 29.874062,81.226791 
z"/>
<path fill="#6888F7" opacity="1.000000" stroke="none" 
	d="
M76.943184,87.872620 
	C77.531677,87.317017 78.137016,86.261009 78.706154,86.280167 
	C88.702095,86.616753 89.758560,78.461159 91.847183,71.917908 
	C94.081848,64.917145 92.562958,57.699463 89.297569,51.388149 
	C87.960434,48.803749 83.913857,47.621178 80.960861,46.038506 
	C80.473663,46.284168 80.125443,46.292221 79.451065,45.901955 
	C77.850998,44.347507 76.577087,43.191376 75.017426,41.775906 
	C76.503952,41.109444 77.753426,40.549259 79.002899,39.989075 
	C79.719673,40.055092 80.436455,40.121109 81.605492,40.567703 
	C86.236145,44.355179 90.414543,47.762085 94.592934,51.168991 
	C94.704117,52.189869 94.815300,53.210743 94.693893,54.872578 
	C94.644424,60.539219 94.841599,65.564445 95.004051,70.590805 
	C95.073257,72.732025 95.069855,74.875595 95.099457,77.018097 
	C95.055000,77.440887 95.010544,77.863678 94.562225,78.660797 
	C93.413696,80.327904 92.669022,81.620674 91.894760,83.173698 
	C91.884743,83.607460 91.904320,83.780968 91.923897,83.954483 
	C91.923897,83.954483 91.850555,83.887497 91.472061,83.962601 
	C88.358429,86.100334 85.623299,88.162964 82.888168,90.225586 
	C81.918152,90.314201 80.948128,90.402809 79.439667,90.148338 
	C78.248550,89.161041 77.595863,88.516830 76.943184,87.872620 
z"/>
<path fill="#D9E2FD" opacity="1.000000" stroke="none" 
	d="
M62.099541,62.994713 
	C63.744385,65.718407 63.529251,67.324043 59.944138,68.261108 
	C55.782570,69.348862 53.593842,67.166199 53.188484,63.971542 
	C52.359535,57.438496 52.309792,50.800747 52.067062,44.201412 
	C51.928528,40.434807 52.041996,36.658932 52.041996,32.942303 
	C49.557732,33.696255 47.359669,35.024826 45.360420,34.773273 
	C43.568718,34.547840 40.412228,31.878393 40.581127,31.498758 
	C41.758617,28.852057 43.645069,26.520767 45.738426,24.129997 
	C46.172485,24.171576 46.347591,24.345791 46.225624,24.626537 
	C45.571014,26.263969 45.038376,27.620655 44.496483,29.314079 
	C44.524460,29.872288 44.561691,30.093758 44.508076,30.570602 
	C44.676155,31.660387 44.935081,32.494797 45.194004,33.329201 
	C46.512077,32.285030 47.830151,31.240856 49.125656,30.151180 
	C49.103088,30.105679 49.193790,30.151426 49.522587,30.080700 
	C51.454170,28.957556 53.056957,27.905142 55.108940,26.557777 
	C55.108940,37.018818 55.064167,46.924538 55.151409,56.829102 
	C55.166592,58.552670 55.738804,60.271332 56.060066,62.358410 
	C57.038174,63.878384 58.009945,65.032204 59.212875,66.336151 
	C60.329205,65.322426 61.214371,64.158569 62.099541,62.994713 
z"/>
<path fill="#90A8F9" opacity="1.000000" stroke="none" 
	d="
M62.065475,62.527672 
	C61.214371,64.158569 60.329205,65.322426 59.219482,65.849457 
	C59.005810,53.284019 58.966007,41.354855 59.094227,29.427500 
	C59.109573,27.999714 60.038296,26.581749 60.543663,25.159233 
	C62.072491,25.723021 63.697899,26.113228 65.104889,26.896013 
	C66.739708,27.805553 68.183029,29.059296 70.317123,30.603266 
	C70.151924,28.573332 70.050568,27.327879 70.228409,26.138239 
	C71.011620,26.452951 71.515640,26.711849 72.019653,26.970747 
	C72.019653,26.970747 72.371513,27.125223 72.651550,27.484604 
	C73.584190,33.171009 72.769531,33.733196 67.096214,31.870901 
	C67.096214,31.870901 66.735031,31.717916 66.421715,31.418486 
	C65.514061,30.633583 64.919716,30.148111 64.325371,29.662640 
	C60.710999,28.599112 62.093685,31.528955 62.079342,32.786106 
	C61.968006,42.543190 62.025887,52.302208 62.065475,62.527672 
z"/>
<path fill="#5A7EF7" opacity="1.000000" stroke="none" 
	d="
M76.515610,87.905457 
	C77.595863,88.516830 78.248550,89.161041 79.075211,90.113342 
	C78.735527,90.676765 78.221855,90.932106 77.010811,91.127716 
	C71.877434,91.280304 67.441788,91.659294 63.005360,91.668587 
	C54.952343,91.685448 46.898869,91.482323 38.845585,91.371017 
	C37.830589,91.224960 36.815594,91.078903 35.453785,90.691406 
	C35.106972,90.449966 35.072720,89.971115 35.315163,89.752274 
	C35.207535,85.962715 32.644604,87.235413 30.448498,87.281143 
	C30.257225,87.275711 29.881926,87.200798 29.881926,87.200798 
	C30.404057,86.552147 30.926188,85.903496 31.735662,85.113983 
	C43.117455,88.896393 54.613808,89.347115 66.202492,88.841805 
	C69.504524,88.697830 72.793221,88.247917 76.515610,87.905457 
z"/>
<path fill="#C8D4FC" opacity="1.000000" stroke="none" 
	d="
M38.896675,91.731606 
	C46.898869,91.482323 54.952343,91.685448 63.005360,91.668587 
	C67.441788,91.659294 71.877434,91.280304 76.734489,91.221527 
	C75.926651,92.454163 74.702438,94.460632 73.468109,94.466873 
	C62.782078,94.520912 52.092968,94.257217 41.409370,93.935509 
	C40.571091,93.910263 39.767483,92.733681 38.896675,91.731606 
z"/>
<path fill="#9FB4FA" opacity="1.000000" stroke="none" 
	d="
M29.787868,80.736092 
	C28.919195,80.366982 27.924824,79.723045 27.316702,78.819229 
	C23.259653,72.789474 24.307014,55.819744 29.335171,49.965733 
	C28.709394,54.761208 26.982241,59.674057 27.039806,64.565903 
	C27.101809,69.834541 28.836134,75.083504 29.787868,80.736092 
z"/>
<path fill="#D9E2FD" opacity="1.000000" stroke="none" 
	d="
M72.016357,26.606155 
	C71.515640,26.711849 71.011620,26.452951 69.941666,25.968533 
	C65.275864,22.539167 61.176003,19.335327 56.735321,16.110523 
	C55.045227,16.841703 53.695965,17.593845 52.259338,18.258820 
	C52.171978,18.171654 51.997253,17.997318 51.997253,17.997318 
	C54.944115,12.455230 58.653831,11.587708 62.690830,15.745700 
	C65.947212,19.099682 68.916435,22.732468 72.016357,26.606155 
z"/>
<path fill="#D3DCFC" opacity="1.000000" stroke="none" 
	d="
M95.902145,55.105888 
	C96.900597,55.963375 98.715332,56.778130 98.762833,57.685406 
	C99.037140,62.924984 98.986221,68.189705 98.798660,73.437088 
	C98.768570,74.278923 97.496109,75.076347 96.397789,75.530609 
	C95.965790,68.479912 95.933968,61.792900 95.902145,55.105888 
z"/>
<path fill="#9FB4FA" opacity="1.000000" stroke="none" 
	d="
M95.678383,55.064598 
	C95.933968,61.792900 95.965790,68.479912 96.008789,75.591766 
	C95.924721,76.326111 95.761154,76.593857 95.314362,76.918976 
	C95.069855,74.875595 95.073257,72.732025 95.004051,70.590805 
	C94.841599,65.564445 94.644424,60.539219 94.730713,55.256760 
	C95.000130,54.999989 95.454620,55.023312 95.678383,55.064598 
z"/>
<path fill="#9FB4FA" opacity="1.000000" stroke="none" 
	d="
M78.991852,39.763943 
	C77.753426,40.549259 76.503952,41.109444 75.017426,41.775906 
	C76.577087,43.191376 77.850998,44.347507 79.215210,45.773514 
	C78.233078,46.273933 77.160645,46.504475 75.565994,46.399338 
	C73.894783,44.659515 72.745789,43.255371 71.596794,41.851219 
	C72.180916,40.955563 72.765045,40.059906 74.089493,39.100307 
	C76.192261,39.055088 77.554710,39.073803 78.917160,39.092522 
	C78.917160,39.092522 78.980797,39.538811 78.991852,39.763943 
z"/>
<path fill="#9FB4FA" opacity="1.000000" stroke="none" 
	d="
M94.700653,50.819237 
	C90.414543,47.762085 86.236145,44.355179 81.960136,40.628502 
	C88.105919,41.239029 92.270592,44.817841 94.700653,50.819237 
z"/>
<path fill="#C8D4FC" opacity="1.000000" stroke="none" 
	d="
M19.339176,74.067184 
	C21.349594,77.431221 23.213511,81.220703 25.147278,85.348991 
	C21.470604,84.362053 19.004698,79.779701 19.339176,74.067184 
z"/>
<path fill="#C8D4FC" opacity="1.000000" stroke="none" 
	d="
M24.820004,45.208900 
	C23.626730,49.027500 22.063627,52.801785 20.212021,56.783295 
	C17.196270,51.427067 21.530645,48.566612 24.820004,45.208900 
z"/>
<path fill="#C8D4FC" opacity="1.000000" stroke="none" 
	d="
M35.072716,89.971115 
	C35.072720,89.971115 35.106972,90.449966 35.067596,90.686417 
	C29.856647,93.672394 27.793362,89.481636 25.247557,86.149307 
	C26.604439,86.239197 27.896334,86.693146 29.535076,87.173943 
	C29.881926,87.200798 30.257225,87.275711 30.602108,87.579483 
	C32.322231,88.579208 33.697475,89.275162 35.072716,89.971115 
z"/>
<path fill="#D9E2FD" opacity="1.000000" stroke="none" 
	d="
M67.105949,32.262932 
	C72.769531,33.733196 73.584190,33.171009 72.839287,27.525501 
	C73.489594,28.647186 74.695473,30.049885 74.816025,31.540367 
	C74.899895,32.577351 73.370216,34.729424 72.775055,34.655807 
	C70.835777,34.415928 68.994606,33.382839 67.105949,32.262932 
z"/>
<path fill="#C8D4FC" opacity="1.000000" stroke="none" 
	d="
M32.835518,39.873672 
	C30.657339,41.789486 28.293306,43.411827 25.593090,45.110775 
	C26.025373,41.082520 28.902174,39.757381 32.835518,39.873672 
z"/>
<path fill="#C8D4FC" opacity="1.000000" stroke="none" 
	d="
M44.322067,40.775658 
	C42.239456,40.553757 40.391823,40.120079 38.285103,39.456497 
	C40.655399,35.847034 42.431553,36.210720 44.322067,40.775658 
z"/>
<path fill="#9FB4FA" opacity="1.000000" stroke="none" 
	d="
M82.831207,90.278122 
	C85.623299,88.162964 88.358429,86.100334 91.423660,83.951477 
	C90.372833,85.482620 88.991905,87.100006 86.936111,88.879242 
	C85.129364,89.512672 83.997498,89.984245 82.865623,90.455818 
	C82.865623,90.455818 82.774231,90.330643 82.831207,90.278122 
z"/>
<path fill="#C8D4FC" opacity="1.000000" stroke="none" 
	d="
M39.210625,46.201069 
	C40.413548,45.012600 41.840771,44.117577 43.571632,43.102806 
	C44.921776,46.834373 44.585049,47.100658 39.210625,46.201069 
z"/>
<path fill="#D5DEFC" opacity="1.000000" stroke="none" 
	d="
M71.326431,41.954815 
	C72.745789,43.255371 73.894783,44.659515 75.150085,46.364025 
	C72.510651,46.356182 70.163589,45.684406 71.326431,41.954815 
z"/>
<path fill="#D5DEFC" opacity="1.000000" stroke="none" 
	d="
M78.884872,38.722061 
	C77.554710,39.073803 76.192261,39.055088 74.419907,39.024742 
	C75.228401,35.895191 76.956856,36.511093 78.884872,38.722061 
z"/>
<path fill="#C8D4FC" opacity="1.000000" stroke="none" 
	d="
M82.969513,90.744484 
	C83.997498,89.984245 85.129364,89.512672 86.622520,89.013794 
	C86.505203,91.244705 85.723824,92.924446 82.969513,90.744484 
z"/>
<path fill="#C8D4FC" opacity="1.000000" stroke="none" 
	d="
M31.924807,49.576614 
	C32.432053,48.564468 33.297005,47.696690 34.506851,46.829403 
	C33.995335,47.793591 33.138924,48.757290 31.924807,49.576614 
z"/>
<path fill="#9FB4FA" opacity="1.000000" stroke="none" 
	d="
M91.924347,82.913452 
	C92.669022,81.620674 93.413696,80.327904 94.489769,78.971603 
	C94.334900,80.079407 93.848618,81.250740 92.906540,82.679031 
	C92.275291,82.928490 92.099823,82.920975 91.924347,82.913452 
z"/>
<path fill="#D9E2FD" opacity="1.000000" stroke="none" 
	d="
M46.084938,24.084461 
	C46.772442,23.025414 47.547497,22.053482 48.747116,21.126318 
	C49.171680,21.171085 49.346218,21.345057 49.220066,21.631714 
	C48.178474,22.727509 47.263031,23.536648 46.347588,24.345791 
	C46.347591,24.345791 46.172485,24.171576 46.084938,24.084461 
z"/>
<path fill="#D9E2FD" opacity="1.000000" stroke="none" 
	d="
M49.084415,21.084099 
	C49.772404,20.025398 50.547657,19.053686 51.660080,18.039646 
	C51.997253,17.997318 52.171978,18.171654 52.133087,18.545403 
	C51.178204,19.727785 50.262211,20.536421 49.346218,21.345057 
	C49.346218,21.345057 49.171680,21.171085 49.084415,21.084099 
z"/>
<path fill="#D9E2FD" opacity="1.000000" stroke="none" 
	d="
M64.260414,30.033176 
	C64.919716,30.148111 65.514061,30.633583 66.227837,31.388924 
	C65.630005,31.240435 64.912727,30.822075 64.260414,30.033176 
z"/>
<path fill="#D3DCFC" opacity="1.000000" stroke="none" 
	d="
M91.894760,83.173698 
	C92.099823,82.920975 92.275291,82.928490 92.713593,82.951233 
	C92.782127,83.233925 92.587814,83.501373 92.158691,83.861649 
	C91.904320,83.780968 91.884743,83.607460 91.894760,83.173698 
z"/>
<path fill="#6283F7" opacity="1.000000" stroke="none" 
	d="
M57.076145,16.131487 
	C61.176003,19.335327 65.275864,22.539167 69.662460,25.912716 
	C70.050568,27.327879 70.151924,28.573332 70.317123,30.603266 
	C68.183029,29.059296 66.739708,27.805553 65.104889,26.896013 
	C63.697899,26.113228 62.072491,25.723021 60.543663,25.159233 
	C60.038296,26.581749 59.109573,27.999714 59.094227,29.427500 
	C58.966007,41.354855 59.005810,53.284019 58.988323,65.699333 
	C58.009945,65.032204 57.038174,63.878384 56.343513,62.057224 
	C56.735111,57.104092 56.915539,52.818810 56.948971,48.532379 
	C57.001873,41.748646 56.986168,34.963924 56.935604,28.180098 
	C56.918819,25.928217 56.555161,23.119785 53.488907,24.655514 
	C51.610786,25.596165 50.596184,28.260933 49.193794,30.151428 
	C49.193790,30.151426 49.103088,30.105679 48.674667,30.095329 
	C47.030472,30.161728 45.814693,30.238480 44.598919,30.315228 
	C44.561691,30.093758 44.524460,29.872288 44.859859,29.228033 
	C49.180374,24.580662 53.128262,20.356075 57.076145,16.131487 
z"/>
<path fill="#90A8F9" opacity="1.000000" stroke="none" 
	d="
M49.522591,30.080700 
	C50.596184,28.260933 51.610786,25.596165 53.488907,24.655514 
	C56.555161,23.119785 56.918819,25.928217 56.935604,28.180098 
	C56.986168,34.963924 57.001873,41.748646 56.948971,48.532379 
	C56.915539,52.818810 56.735111,57.104092 56.337177,61.691074 
	C55.738804,60.271332 55.166592,58.552670 55.151409,56.829102 
	C55.064167,46.924538 55.108940,37.018818 55.108940,26.557777 
	C53.056957,27.905142 51.454170,28.957556 49.522591,30.080700 
z"/>
<path fill="#90A8F9" opacity="1.000000" stroke="none" 
	d="
M56.735321,16.110525 
	C53.128262,20.356075 49.180374,24.580662 44.869110,28.891294 
	C45.038376,27.620655 45.571014,26.263969 46.225620,24.626537 
	C47.263031,23.536648 48.178474,22.727509 49.220066,21.631714 
	C50.262211,20.536421 51.178204,19.727785 52.220451,18.632568 
	C53.695965,17.593845 55.045227,16.841703 56.735321,16.110525 
z"/>
<path fill="#90A8F9" opacity="1.000000" stroke="none" 
	d="
M44.508076,30.570604 
	C45.814693,30.238480 47.030472,30.161728 48.697235,30.140831 
	C47.830151,31.240856 46.512077,32.285030 45.194004,33.329201 
	C44.935081,32.494797 44.676155,31.660387 44.508076,30.570604 
z"/>
<path fill="#7794F8" opacity="1.000000" stroke="none" 
	d="
M35.315163,89.752274 
	C33.697475,89.275162 32.322231,88.579208 30.793381,87.584915 
	C32.644604,87.235413 35.207535,85.962715 35.315163,89.752274 
z"/>
</svg>